<?xml version="1.0" encoding="UTF-8"?>
<svg xmlns="http://www.w3.org/2000/svg" xmlns:xlink="http://www.w3.org/1999/xlink" width="291pt" height="89pt" viewBox="0 0 291 89" version="1.1">
<g id="surface1">
<path style="fill:none;stroke-width:0.3985;stroke-linecap:butt;stroke-linejoin:miter;stroke:rgb(0%,0%,0%);stroke-opacity:1;stroke-miterlimit:10;" d="M -0.000733265 85.042125 L -56.694912 -0.00084375 L 85.040535 28.346812 L -0.000733265 85.042125 " transform="matrix(1.00002,0,0,-1,58.789796,86.839)"/>
<path style="fill:none;stroke-width:0.3985;stroke-linecap:butt;stroke-linejoin:miter;stroke:rgb(0%,0%,0%);stroke-opacity:1;stroke-miterlimit:10;" d="M -28.347823 42.518687 L 14.174764 14.174937 L 42.521854 56.694469 L -28.347823 42.518687 " transform="matrix(1.00002,0,0,-1,58.789796,86.839)"/>
<path style="fill:none;stroke-width:0.3985;stroke-linecap:butt;stroke-linejoin:miter;stroke:rgb(0%,0%,0%);stroke-opacity:1;stroke-miterlimit:10;" d="M 42.521854 56.694469 L -0.000733265 85.042125 " transform="matrix(1.00002,0,0,-1,58.789796,86.839)"/>
<path style=" stroke:none;fill-rule:nonzero;fill:rgb(0%,0%,0%);fill-opacity:1;" d="M 77.9375 14.5625 C 78.710938 15.320312 79.816406 16.773438 80.425781 18.015625 L 82.082031 15.53125 C 80.699219 15.449219 78.933594 14.988281 77.9375 14.5625 "/>
<path style="fill:none;stroke-width:0.3985;stroke-linecap:butt;stroke-linejoin:miter;stroke:rgb(0%,0%,0%);stroke-opacity:1;stroke-miterlimit:10;" d="M -0.000733265 85.042125 L -28.347823 42.518687 " transform="matrix(1.00002,0,0,-1,58.789796,86.839)"/>
<path style=" stroke:none;fill-rule:nonzero;fill:rgb(0%,0%,0%);fill-opacity:1;" d="M 43.207031 25.171875 C 43.960938 24.398438 45.417969 23.292969 46.660156 22.683594 L 44.175781 21.027344 C 44.089844 22.410156 43.632812 24.175781 43.207031 25.171875 "/>
<path style="fill:none;stroke-width:0.3985;stroke-linecap:butt;stroke-linejoin:miter;stroke:rgb(0%,0%,0%);stroke-opacity:1;stroke-miterlimit:10;" d="M -28.347823 42.518687 L -56.694912 -0.00084375 " transform="matrix(1.00002,0,0,-1,58.789796,86.839)"/>
<path style=" stroke:none;fill-rule:nonzero;fill:rgb(0%,0%,0%);fill-opacity:1;" d="M 14.859375 67.691406 C 15.617188 66.917969 17.070312 65.8125 18.3125 65.207031 L 15.828125 63.546875 C 15.746094 64.929688 15.285156 66.699219 14.859375 67.691406 "/>
<path style="fill:none;stroke-width:0.3985;stroke-linecap:butt;stroke-linejoin:miter;stroke:rgb(0%,0%,0%);stroke-opacity:1;stroke-miterlimit:10;" d="M -56.694912 -0.00084375 L 14.174764 14.174937 " transform="matrix(1.00002,0,0,-1,58.789796,86.839)"/>
<path style=" stroke:none;fill-rule:nonzero;fill:rgb(0%,0%,0%);fill-opacity:1;" d="M 41.0625 79.046875 C 39.984375 79.058594 38.171875 78.8125 36.863281 78.363281 L 37.449219 81.292969 C 38.484375 80.375 40.0625 79.449219 41.0625 79.046875 "/>
<path style="fill:none;stroke-width:0.3985;stroke-linecap:butt;stroke-linejoin:miter;stroke:rgb(0%,0%,0%);stroke-opacity:1;stroke-miterlimit:10;" d="M 14.174764 14.174937 L 85.040535 28.346812 " transform="matrix(1.00002,0,0,-1,58.789796,86.839)"/>
<path style=" stroke:none;fill-rule:nonzero;fill:rgb(0%,0%,0%);fill-opacity:1;" d="M 111.933594 64.871094 C 110.851562 64.886719 109.039062 64.636719 107.730469 64.1875 L 108.316406 67.117188 C 109.351562 66.199219 110.929688 65.277344 111.933594 64.871094 "/>
<path style="fill:none;stroke-width:0.3985;stroke-linecap:butt;stroke-linejoin:miter;stroke:rgb(0%,0%,0%);stroke-opacity:1;stroke-miterlimit:10;" d="M 85.040535 28.346812 L 42.521854 56.694469 " transform="matrix(1.00002,0,0,-1,58.789796,86.839)"/>
<path style=" stroke:none;fill-rule:nonzero;fill:rgb(0%,0%,0%);fill-opacity:1;" d="M 120.457031 42.910156 C 121.230469 43.664062 122.335938 45.121094 122.945312 46.363281 L 124.601562 43.878906 C 123.222656 43.792969 121.453125 43.332031 120.457031 42.910156 "/>
<path style="fill:none;stroke-width:0.3985;stroke-linecap:butt;stroke-linejoin:miter;stroke:rgb(0%,0%,0%);stroke-opacity:1;stroke-miterlimit:10;" d="M -28.347823 42.518687 L 42.521854 56.694469 " transform="matrix(1.00002,0,0,-1,58.789796,86.839)"/>
<path style=" stroke:none;fill-rule:nonzero;fill:rgb(0%,0%,0%);fill-opacity:1;" d="M 69.410156 36.523438 C 68.332031 36.539062 66.519531 36.289062 65.210938 35.839844 L 65.796875 38.773438 C 66.832031 37.855469 68.410156 36.929688 69.410156 36.523438 "/>
<path style="fill:none;stroke-width:0.3985;stroke-linecap:butt;stroke-linejoin:miter;stroke:rgb(0%,0%,0%);stroke-opacity:1;stroke-miterlimit:10;" d="M 42.521854 56.694469 L 14.174764 14.174937 " transform="matrix(1.00002,0,0,-1,58.789796,86.839)"/>
<path style=" stroke:none;fill-rule:nonzero;fill:rgb(0%,0%,0%);fill-opacity:1;" d="M 85.730469 53.519531 C 86.484375 52.746094 87.9375 51.640625 89.183594 51.03125 L 86.695312 49.375 C 86.613281 50.753906 86.152344 52.523438 85.730469 53.519531 "/>
<path style="fill:none;stroke-width:0.3985;stroke-linecap:butt;stroke-linejoin:miter;stroke:rgb(0%,0%,0%);stroke-opacity:1;stroke-miterlimit:10;" d="M 14.174764 14.174937 L -28.347823 42.518687 " transform="matrix(1.00002,0,0,-1,58.789796,86.839)"/>
<path style=" stroke:none;fill-rule:nonzero;fill:rgb(0%,0%,0%);fill-opacity:1;" d="M 49.589844 57.082031 C 50.363281 57.839844 51.46875 59.292969 52.078125 60.539062 L 53.734375 58.050781 C 52.351562 57.96875 50.585938 57.507812 49.589844 57.082031 "/>
<path style="fill:none;stroke-width:0.3985;stroke-linecap:butt;stroke-linejoin:miter;stroke:rgb(0%,0%,0%);stroke-opacity:1;stroke-miterlimit:10;" d="M 0.00148273 85.042125 L -56.692696 -0.00084375 L 85.038844 28.346812 L 0.00148273 85.042125 " transform="matrix(1.00002,0,0,-1,204.240705,86.839)"/>
<path style="fill:none;stroke-width:0.3985;stroke-linecap:butt;stroke-linejoin:miter;stroke:rgb(0%,0%,0%);stroke-opacity:1;stroke-miterlimit:10;" d="M -14.174015 63.780406 L 21.25887 70.866344 L 7.087279 49.608531 L -14.174015 63.780406 " transform="matrix(1.00002,0,0,-1,204.240705,86.839)"/>
<path style="fill:none;stroke-width:0.3985;stroke-linecap:butt;stroke-linejoin:miter;stroke:rgb(0%,0%,0%);stroke-opacity:1;stroke-miterlimit:10;" d="M -42.521104 21.260875 L -7.088219 28.346812 L -21.259811 7.085094 L -42.521104 21.260875 " transform="matrix(1.00002,0,0,-1,204.240705,86.839)"/>
<path style="fill:none;stroke-width:0.3985;stroke-linecap:butt;stroke-linejoin:miter;stroke:rgb(0%,0%,0%);stroke-opacity:1;stroke-miterlimit:10;" d="M -7.088219 28.346812 L 7.087279 49.608531 L 28.348572 35.43275 L -7.088219 28.346812 " transform="matrix(1.00002,0,0,-1,204.240705,86.839)"/>
<path style="fill:none;stroke-width:0.3985;stroke-linecap:butt;stroke-linejoin:miter;stroke:rgb(0%,0%,0%);stroke-opacity:1;stroke-miterlimit:10;" d="M 28.348572 35.43275 L 63.781457 42.518687 L 49.605959 21.260875 L 28.348572 35.43275 " transform="matrix(1.00002,0,0,-1,204.240705,86.839)"/>
<path style="fill:none;stroke-width:0.3985;stroke-linecap:butt;stroke-linejoin:miter;stroke:rgb(0%,0%,0%);stroke-opacity:1;stroke-miterlimit:10;" d="M -28.345607 42.518687 L 14.173074 14.174937 L 42.520164 56.694469 L -28.345607 42.518687 " transform="matrix(1.00002,0,0,-1,204.240705,86.839)"/>
<path style="fill:none;stroke-width:0.3985;stroke-linecap:butt;stroke-linejoin:miter;stroke:rgb(0%,0%,0%);stroke-opacity:1;stroke-miterlimit:10;" d="M 0.00148273 85.042125 L -14.174015 63.780406 " transform="matrix(1.00002,0,0,-1,204.240705,86.839)"/>
<path style=" stroke:none;fill-rule:nonzero;fill:rgb(0%,0%,0%);fill-opacity:1;" d="M 196.449219 13.488281 C 197.203125 12.710938 198.660156 11.609375 199.902344 11 L 197.414062 9.34375 C 197.332031 10.722656 196.871094 12.492188 196.449219 13.488281 "/>
<path style="fill:none;stroke-width:0.3985;stroke-linecap:butt;stroke-linejoin:miter;stroke:rgb(0%,0%,0%);stroke-opacity:1;stroke-miterlimit:10;" d="M -14.174015 63.780406 L -28.345607 42.518687 " transform="matrix(1.00002,0,0,-1,204.240705,86.839)"/>
<path style=" stroke:none;fill-rule:nonzero;fill:rgb(0%,0%,0%);fill-opacity:1;" d="M 182.273438 34.746094 C 183.03125 33.972656 184.484375 32.867188 185.730469 32.257812 L 183.242188 30.601562 C 183.160156 31.984375 182.699219 33.75 182.273438 34.746094 "/>
<path style="fill:none;stroke-width:0.3985;stroke-linecap:butt;stroke-linejoin:miter;stroke:rgb(0%,0%,0%);stroke-opacity:1;stroke-miterlimit:10;" d="M -28.345607 42.518687 L -42.521104 21.260875 " transform="matrix(1.00002,0,0,-1,204.240705,86.839)"/>
<path style=" stroke:none;fill-rule:nonzero;fill:rgb(0%,0%,0%);fill-opacity:1;" d="M 168.101562 56.007812 C 168.855469 55.234375 170.3125 54.128906 171.554688 53.519531 L 169.070312 51.863281 C 168.984375 53.242188 168.523438 55.011719 168.101562 56.007812 "/>
<path style="fill:none;stroke-width:0.3985;stroke-linecap:butt;stroke-linejoin:miter;stroke:rgb(0%,0%,0%);stroke-opacity:1;stroke-miterlimit:10;" d="M -42.521104 21.260875 L -56.692696 -0.00084375 " transform="matrix(1.00002,0,0,-1,204.240705,86.839)"/>
<path style=" stroke:none;fill-rule:nonzero;fill:rgb(0%,0%,0%);fill-opacity:1;" d="M 153.929688 77.265625 C 154.683594 76.492188 156.136719 75.386719 157.382812 74.78125 L 154.894531 73.121094 C 154.8125 74.503906 154.351562 76.273438 153.929688 77.265625 "/>
<path style="fill:none;stroke-width:0.3985;stroke-linecap:butt;stroke-linejoin:miter;stroke:rgb(0%,0%,0%);stroke-opacity:1;stroke-miterlimit:10;" d="M -56.692696 -0.00084375 L -21.259811 7.085094 " transform="matrix(1.00002,0,0,-1,204.240705,86.839)"/>
<path style=" stroke:none;fill-rule:nonzero;fill:rgb(0%,0%,0%);fill-opacity:1;" d="M 167.03125 82.941406 C 165.953125 82.953125 164.140625 82.707031 162.832031 82.257812 L 163.417969 85.1875 C 164.453125 84.269531 166.03125 83.34375 167.03125 82.941406 "/>
<path style="fill:none;stroke-width:0.3985;stroke-linecap:butt;stroke-linejoin:miter;stroke:rgb(0%,0%,0%);stroke-opacity:1;stroke-miterlimit:10;" d="M -21.259811 7.085094 L 14.173074 14.174937 " transform="matrix(1.00002,0,0,-1,204.240705,86.839)"/>
<path style=" stroke:none;fill-rule:nonzero;fill:rgb(0%,0%,0%);fill-opacity:1;" d="M 202.46875 75.855469 C 201.386719 75.867188 199.574219 75.621094 198.265625 75.171875 L 198.851562 78.101562 C 199.886719 77.183594 201.464844 76.257812 202.46875 75.855469 "/>
<path style="fill:none;stroke-width:0.3985;stroke-linecap:butt;stroke-linejoin:miter;stroke:rgb(0%,0%,0%);stroke-opacity:1;stroke-miterlimit:10;" d="M 14.173074 14.174937 L 49.605959 21.260875 " transform="matrix(1.00002,0,0,-1,204.240705,86.839)"/>
<path style=" stroke:none;fill-rule:nonzero;fill:rgb(0%,0%,0%);fill-opacity:1;" d="M 237.902344 68.769531 C 236.820312 68.78125 235.011719 68.535156 233.699219 68.085938 L 234.285156 71.015625 C 235.324219 70.097656 236.898438 69.171875 237.902344 68.769531 "/>
<path style="fill:none;stroke-width:0.3985;stroke-linecap:butt;stroke-linejoin:miter;stroke:rgb(0%,0%,0%);stroke-opacity:1;stroke-miterlimit:10;" d="M 49.605959 21.260875 L 85.038844 28.346812 " transform="matrix(1.00002,0,0,-1,204.240705,86.839)"/>
<path style=" stroke:none;fill-rule:nonzero;fill:rgb(0%,0%,0%);fill-opacity:1;" d="M 273.335938 61.679688 C 272.253906 61.695312 270.445312 61.445312 269.136719 60.996094 L 269.722656 63.929688 C 270.757812 63.011719 272.332031 62.085938 273.335938 61.679688 "/>
<path style="fill:none;stroke-width:0.3985;stroke-linecap:butt;stroke-linejoin:miter;stroke:rgb(0%,0%,0%);stroke-opacity:1;stroke-miterlimit:10;" d="M 85.038844 28.346812 L 63.781457 42.518687 " transform="matrix(1.00002,0,0,-1,204.240705,86.839)"/>
<path style=" stroke:none;fill-rule:nonzero;fill:rgb(0%,0%,0%);fill-opacity:1;" d="M 277.59375 50.699219 C 278.367188 51.457031 279.472656 52.910156 280.082031 54.15625 L 281.738281 51.667969 C 280.359375 51.585938 278.589844 51.125 277.59375 50.699219 "/>
<path style="fill:none;stroke-width:0.3985;stroke-linecap:butt;stroke-linejoin:miter;stroke:rgb(0%,0%,0%);stroke-opacity:1;stroke-miterlimit:10;" d="M 63.781457 42.518687 L 42.520164 56.694469 " transform="matrix(1.00002,0,0,-1,204.240705,86.839)"/>
<path style=" stroke:none;fill-rule:nonzero;fill:rgb(0%,0%,0%);fill-opacity:1;" d="M 256.335938 36.527344 C 257.109375 37.28125 258.214844 38.738281 258.820312 39.980469 L 260.480469 37.496094 C 259.097656 37.410156 257.328125 36.949219 256.335938 36.527344 "/>
<path style="fill:none;stroke-width:0.3985;stroke-linecap:butt;stroke-linejoin:miter;stroke:rgb(0%,0%,0%);stroke-opacity:1;stroke-miterlimit:10;" d="M 42.520164 56.694469 L 21.25887 70.866344 " transform="matrix(1.00002,0,0,-1,204.240705,86.839)"/>
<path style=" stroke:none;fill-rule:nonzero;fill:rgb(0%,0%,0%);fill-opacity:1;" d="M 235.074219 22.355469 C 235.847656 23.109375 236.953125 24.5625 237.558594 25.808594 L 239.21875 23.320312 C 237.835938 23.238281 236.070312 22.777344 235.074219 22.355469 "/>
<path style="fill:none;stroke-width:0.3985;stroke-linecap:butt;stroke-linejoin:miter;stroke:rgb(0%,0%,0%);stroke-opacity:1;stroke-miterlimit:10;" d="M 21.25887 70.866344 L 0.00148273 85.042125 " transform="matrix(1.00002,0,0,-1,204.240705,86.839)"/>
<path style=" stroke:none;fill-rule:nonzero;fill:rgb(0%,0%,0%);fill-opacity:1;" d="M 213.8125 8.179688 C 214.585938 8.9375 215.691406 10.390625 216.300781 11.632812 L 217.957031 9.148438 C 216.578125 9.066406 214.808594 8.605469 213.8125 8.179688 "/>
<path style="fill:none;stroke-width:0.3985;stroke-linecap:butt;stroke-linejoin:miter;stroke:rgb(0%,0%,0%);stroke-opacity:1;stroke-miterlimit:10;" d="M -14.174015 63.780406 L 21.25887 70.866344 " transform="matrix(1.00002,0,0,-1,204.240705,86.839)"/>
<path style=" stroke:none;fill-rule:nonzero;fill:rgb(0%,0%,0%);fill-opacity:1;" d="M 209.554688 19.160156 C 208.472656 19.175781 206.664062 18.925781 205.351562 18.476562 L 205.941406 21.40625 C 206.976562 20.488281 208.550781 19.566406 209.554688 19.160156 "/>
<path style="fill:none;stroke-width:0.3985;stroke-linecap:butt;stroke-linejoin:miter;stroke:rgb(0%,0%,0%);stroke-opacity:1;stroke-miterlimit:10;" d="M -28.345607 42.518687 L 7.087279 49.608531 " transform="matrix(1.00002,0,0,-1,204.240705,86.839)"/>
<path style=" stroke:none;fill-rule:nonzero;fill:rgb(0%,0%,0%);fill-opacity:1;" d="M 195.378906 40.421875 C 194.300781 40.433594 192.488281 40.1875 191.179688 39.738281 L 191.765625 42.667969 C 192.800781 41.75 194.378906 40.824219 195.378906 40.421875 "/>
<path style="fill:none;stroke-width:0.3985;stroke-linecap:butt;stroke-linejoin:miter;stroke:rgb(0%,0%,0%);stroke-opacity:1;stroke-miterlimit:10;" d="M 7.087279 49.608531 L 42.520164 56.694469 " transform="matrix(1.00002,0,0,-1,204.240705,86.839)"/>
<path style=" stroke:none;fill-rule:nonzero;fill:rgb(0%,0%,0%);fill-opacity:1;" d="M 230.816406 33.335938 C 229.734375 33.347656 227.921875 33.101562 226.613281 32.652344 L 227.199219 35.582031 C 228.234375 34.664062 229.8125 33.738281 230.816406 33.335938 "/>
<path style="fill:none;stroke-width:0.3985;stroke-linecap:butt;stroke-linejoin:miter;stroke:rgb(0%,0%,0%);stroke-opacity:1;stroke-miterlimit:10;" d="M -42.521104 21.260875 L -7.088219 28.346812 " transform="matrix(1.00002,0,0,-1,204.240705,86.839)"/>
<path style=" stroke:none;fill-rule:nonzero;fill:rgb(0%,0%,0%);fill-opacity:1;" d="M 181.207031 61.679688 C 180.125 61.695312 178.316406 61.445312 177.007812 60.996094 L 177.59375 63.929688 C 178.628906 63.011719 180.203125 62.085938 181.207031 61.679688 "/>
<path style="fill:none;stroke-width:0.3985;stroke-linecap:butt;stroke-linejoin:miter;stroke:rgb(0%,0%,0%);stroke-opacity:1;stroke-miterlimit:10;" d="M -7.088219 28.346812 L 28.348572 35.43275 " transform="matrix(1.00002,0,0,-1,204.240705,86.839)"/>
<path style=" stroke:none;fill-rule:nonzero;fill:rgb(0%,0%,0%);fill-opacity:1;" d="M 216.640625 54.59375 C 215.558594 54.609375 213.75 54.359375 212.441406 53.910156 L 213.027344 56.839844 C 214.0625 55.921875 215.636719 55 216.640625 54.59375 "/>
<path style="fill:none;stroke-width:0.3985;stroke-linecap:butt;stroke-linejoin:miter;stroke:rgb(0%,0%,0%);stroke-opacity:1;stroke-miterlimit:10;" d="M 28.348572 35.43275 L 63.781457 42.518687 " transform="matrix(1.00002,0,0,-1,204.240705,86.839)"/>
<path style=" stroke:none;fill-rule:nonzero;fill:rgb(0%,0%,0%);fill-opacity:1;" d="M 252.074219 47.507812 C 250.996094 47.519531 249.183594 47.273438 247.875 46.824219 L 248.460938 49.753906 C 249.496094 48.835938 251.074219 47.910156 252.074219 47.507812 "/>
<path style="fill:none;stroke-width:0.3985;stroke-linecap:butt;stroke-linejoin:miter;stroke:rgb(0%,0%,0%);stroke-opacity:1;stroke-miterlimit:10;" d="M -21.259811 7.085094 L -42.521104 21.260875 " transform="matrix(1.00002,0,0,-1,204.240705,86.839)"/>
<path style=" stroke:none;fill-rule:nonzero;fill:rgb(0%,0%,0%);fill-opacity:1;" d="M 171.292969 71.960938 C 172.066406 72.714844 173.171875 74.171875 173.777344 75.414062 L 175.4375 72.925781 C 174.054688 72.84375 172.285156 72.382812 171.292969 71.960938 "/>
<path style="fill:none;stroke-width:0.3985;stroke-linecap:butt;stroke-linejoin:miter;stroke:rgb(0%,0%,0%);stroke-opacity:1;stroke-miterlimit:10;" d="M 14.173074 14.174937 L -7.088219 28.346812 " transform="matrix(1.00002,0,0,-1,204.240705,86.839)"/>
<path style=" stroke:none;fill-rule:nonzero;fill:rgb(0%,0%,0%);fill-opacity:1;" d="M 206.726562 64.875 C 207.5 65.628906 208.605469 67.085938 209.214844 68.328125 L 210.871094 65.839844 C 209.488281 65.757812 207.722656 65.296875 206.726562 64.875 "/>
<path style="fill:none;stroke-width:0.3985;stroke-linecap:butt;stroke-linejoin:miter;stroke:rgb(0%,0%,0%);stroke-opacity:1;stroke-miterlimit:10;" d="M -7.088219 28.346812 L -28.345607 42.518687 " transform="matrix(1.00002,0,0,-1,204.240705,86.839)"/>
<path style=" stroke:none;fill-rule:nonzero;fill:rgb(0%,0%,0%);fill-opacity:1;" d="M 185.464844 50.699219 C 186.238281 51.457031 187.34375 52.910156 187.953125 54.15625 L 189.609375 51.667969 C 188.230469 51.585938 186.460938 51.125 185.464844 50.699219 "/>
<path style="fill:none;stroke-width:0.3985;stroke-linecap:butt;stroke-linejoin:miter;stroke:rgb(0%,0%,0%);stroke-opacity:1;stroke-miterlimit:10;" d="M 49.605959 21.260875 L 28.348572 35.43275 " transform="matrix(1.00002,0,0,-1,204.240705,86.839)"/>
<path style=" stroke:none;fill-rule:nonzero;fill:rgb(0%,0%,0%);fill-opacity:1;" d="M 242.160156 57.789062 C 242.933594 58.542969 244.039062 59.996094 244.648438 61.242188 L 246.304688 58.753906 C 244.921875 58.671875 243.15625 58.210938 242.160156 57.789062 "/>
<path style="fill:none;stroke-width:0.3985;stroke-linecap:butt;stroke-linejoin:miter;stroke:rgb(0%,0%,0%);stroke-opacity:1;stroke-miterlimit:10;" d="M 28.348572 35.43275 L 7.087279 49.608531 " transform="matrix(1.00002,0,0,-1,204.240705,86.839)"/>
<path style=" stroke:none;fill-rule:nonzero;fill:rgb(0%,0%,0%);fill-opacity:1;" d="M 220.898438 43.613281 C 221.671875 44.371094 222.777344 45.824219 223.386719 47.066406 L 225.042969 44.582031 C 223.664062 44.5 221.894531 44.039062 220.898438 43.613281 "/>
<path style="fill:none;stroke-width:0.3985;stroke-linecap:butt;stroke-linejoin:miter;stroke:rgb(0%,0%,0%);stroke-opacity:1;stroke-miterlimit:10;" d="M 7.087279 49.608531 L -14.174015 63.780406 " transform="matrix(1.00002,0,0,-1,204.240705,86.839)"/>
<path style=" stroke:none;fill-rule:nonzero;fill:rgb(0%,0%,0%);fill-opacity:1;" d="M 199.640625 29.441406 C 200.414062 30.195312 201.519531 31.652344 202.125 32.894531 L 203.785156 30.40625 C 202.402344 30.324219 200.632812 29.863281 199.640625 29.441406 "/>
<path style="fill:none;stroke-width:0.3985;stroke-linecap:butt;stroke-linejoin:miter;stroke:rgb(0%,0%,0%);stroke-opacity:1;stroke-miterlimit:10;" d="M 63.781457 42.518687 L 49.605959 21.260875 " transform="matrix(1.00002,0,0,-1,204.240705,86.839)"/>
<path style=" stroke:none;fill-rule:nonzero;fill:rgb(0%,0%,0%);fill-opacity:1;" d="M 260.230469 56.007812 C 260.984375 55.234375 262.441406 54.128906 263.683594 53.519531 L 261.199219 51.863281 C 261.113281 53.242188 260.652344 55.011719 260.230469 56.007812 "/>
<path style="fill:none;stroke-width:0.3985;stroke-linecap:butt;stroke-linejoin:miter;stroke:rgb(0%,0%,0%);stroke-opacity:1;stroke-miterlimit:10;" d="M 42.520164 56.694469 L 28.348572 35.43275 " transform="matrix(1.00002,0,0,-1,204.240705,86.839)"/>
<path style=" stroke:none;fill-rule:nonzero;fill:rgb(0%,0%,0%);fill-opacity:1;" d="M 238.96875 41.832031 C 239.726562 41.058594 241.179688 39.953125 242.421875 39.347656 L 239.9375 37.6875 C 239.855469 39.070312 239.394531 40.839844 238.96875 41.832031 "/>
<path style="fill:none;stroke-width:0.3985;stroke-linecap:butt;stroke-linejoin:miter;stroke:rgb(0%,0%,0%);stroke-opacity:1;stroke-miterlimit:10;" d="M 28.348572 35.43275 L 14.173074 14.174937 " transform="matrix(1.00002,0,0,-1,204.240705,86.839)"/>
<path style=" stroke:none;fill-rule:nonzero;fill:rgb(0%,0%,0%);fill-opacity:1;" d="M 224.796875 63.09375 C 225.550781 62.320312 227.007812 61.214844 228.25 60.605469 L 225.761719 58.949219 C 225.679688 60.332031 225.21875 62.097656 224.796875 63.09375 "/>
<path style="fill:none;stroke-width:0.3985;stroke-linecap:butt;stroke-linejoin:miter;stroke:rgb(0%,0%,0%);stroke-opacity:1;stroke-miterlimit:10;" d="M 21.25887 70.866344 L 7.087279 49.608531 " transform="matrix(1.00002,0,0,-1,204.240705,86.839)"/>
<path style=" stroke:none;fill-rule:nonzero;fill:rgb(0%,0%,0%);fill-opacity:1;" d="M 217.710938 27.660156 C 218.464844 26.886719 219.917969 25.78125 221.164062 25.171875 L 218.675781 23.515625 C 218.59375 24.898438 218.132812 26.664062 217.710938 27.660156 "/>
<path style="fill:none;stroke-width:0.3985;stroke-linecap:butt;stroke-linejoin:miter;stroke:rgb(0%,0%,0%);stroke-opacity:1;stroke-miterlimit:10;" d="M 7.087279 49.608531 L -7.088219 28.346812 " transform="matrix(1.00002,0,0,-1,204.240705,86.839)"/>
<path style=" stroke:none;fill-rule:nonzero;fill:rgb(0%,0%,0%);fill-opacity:1;" d="M 203.535156 48.917969 C 204.292969 48.144531 205.746094 47.039062 206.988281 46.433594 L 204.503906 44.777344 C 204.421875 46.15625 203.960938 47.925781 203.535156 48.917969 "/>
<path style="fill:none;stroke-width:0.3985;stroke-linecap:butt;stroke-linejoin:miter;stroke:rgb(0%,0%,0%);stroke-opacity:1;stroke-miterlimit:10;" d="M -7.088219 28.346812 L -21.259811 7.085094 " transform="matrix(1.00002,0,0,-1,204.240705,86.839)"/>
<path style=" stroke:none;fill-rule:nonzero;fill:rgb(0%,0%,0%);fill-opacity:1;" d="M 189.363281 70.179688 C 190.117188 69.40625 191.574219 68.300781 192.816406 67.691406 L 190.328125 66.035156 C 190.246094 67.417969 189.785156 69.183594 189.363281 70.179688 "/>
</g>
</svg>
